<?xml version="1.0" encoding="UTF-8"?>
<svg id="Layer_2" data-name="Layer 2" xmlns="http://www.w3.org/2000/svg" viewBox="0 0 95 93.72">
  <defs>
    <style>
      .cls-1 {
        fill: #fff;
      }
    </style>
  </defs>
  <g id="Layer_1-2" data-name="Layer 1">
    <path class="cls-1" d="M94.92,36.18c.19-.56,0-.94-.19-1.5l-13.12-22.68c-.56-.94-1.69-1.12-2.62-.75l-16.5,9.56V1.88c0-.94-.93-1.88-1.87-1.88h-26.24c-.94,0-1.88.94-1.88,1.88v18.93l-16.5-9.56c-.94-.56-2.06-.19-2.62.75L.27,34.68c-.19.38-.38.94-.19,1.5s.38.94.94,1.12l16.49,9.56L1.02,56.42c-.38.19-.75.56-.94,1.12s0,.94.19,1.5l13.12,22.68c.56.94,1.69,1.12,2.62.75l16.5-9.56v18.93c0,.94.94,1.88,1.88,1.88h26.24c.94,0,1.87-.94,1.87-1.88v-18.93s16.49,9.56,16.49,9.56c.94.56,2.06.19,2.62-.75l13.12-22.68c.19-.38.38-.94.19-1.5s-.38-.94-.94-1.12l-16.49-9.56,16.5-9.56c.37-.19.75-.56.93-1.12h0Z"/>
  </g>
</svg>